<svg width="43" height="44" viewBox="0 0 43 44" fill="none" xmlns="http://www.w3.org/2000/svg">
<path id="ic_update_24px" d="M42.5616 17.3366H26.529L33.0082 10.6682C26.5526 4.28351 16.1007 4.04704 9.64507 10.4317C3.18945 16.84 3.18945 27.1737 9.64507 33.582C16.1007 39.9904 26.5526 39.9904 33.0082 33.582C36.2242 30.4134 37.8322 26.7008 37.8322 22.0187H42.5616C42.5616 26.7008 40.4807 32.7781 36.3188 36.8926C28.0187 45.1217 14.54 45.1217 6.23991 36.8926C-2.03651 28.6871 -2.10745 15.3503 6.19262 7.14478C14.4927 -1.0607 27.8059 -1.0607 36.106 7.14478L42.5616 0.5V17.3366ZM22.4617 12.3235V22.3734L30.7381 27.292L29.0355 30.1532L18.9147 24.1469V12.3235H22.4617Z" fill="black"/>
</svg>
