<svg width="31" height="31" viewBox="0 0 31 31" fill="none" xmlns="http://www.w3.org/2000/svg">
<path id="ic_local_grocery_store_24px" d="M9.3 24.8C7.595 24.8 6.2155 26.195 6.2155 27.9C6.2155 29.605 7.595 31 9.3 31C11.005 31 12.4 29.605 12.4 27.9C12.4 26.195 11.005 24.8 9.3 24.8ZM0 0V3.1H3.1L8.68 14.8645L6.5875 18.662C6.3395 19.096 6.2 19.6075 6.2 20.15C6.2 21.855 7.595 23.25 9.3 23.25H27.9V20.15H9.951C9.734 20.15 9.5635 19.9795 9.5635 19.7625L9.61 19.5765L11.005 17.05H22.5525C23.715 17.05 24.738 16.4145 25.265 15.4535L30.814 5.394C30.938 5.177 31 4.9135 31 4.65C31 3.7975 30.3025 3.1 29.45 3.1H6.5255L5.0685 7.39098e-07L0 0ZM24.8 24.8C23.095 24.8 21.7155 26.195 21.7155 27.9C21.7155 29.605 23.095 31 24.8 31C26.505 31 27.9 29.605 27.9 27.9C27.9 26.195 26.505 24.8 24.8 24.8Z" fill="#02273D"/>
</svg>
